:SAMPLES-PER-SECOND 24
:FULLY-SPECIFIED
:DEGREES
368
root  -0.901401 41.2971 19.2849 8.75195 56.9918 1.62579
RightUpLeg  -25.6223 -3.12765 -10.9185
RightLeg  26.565 7.54781 3.84804
RightFoot  11.2499 -3.30506 16.8335
RightToes  -2.08645e-008 3.77894e-005 6.81332e-007
Spine  2.37614 -3.70219 -4.17628
Spine1  2.83645 -4.02424 2.0127
HEad  -28.3458 -21.3211 4.05203
LeftShoulder1  6.50555 -12.5497 -34.51
LeftArm  4.31751 33.2972 -21.8337
LeftForeArm  171.068 -61.6854 -161.757
LeftHand  -0.288891 -1.46716 5.05557
RightShoulder  3.86963 6.4692 32.9171
RightArm  16.1136 -29.4589 32.4828
RightForeArm  155.636 72.6624 146.958
RightHand  0.416824 10.159 2.68326
LeftUpLeg  -2.68045 2.10532 10.5182
LeftLeg  16.4726 -1.00192 0.175295
LeftFoot  4.60019 2.7242 -19.5313
LeftToes  1.24767e-006 1.47042e-008 1.32732e-009
369
root  -0.90882 40.9517 19.585 7.61267 58.2726 0.723267
RightUpLeg  -24.6577 -1.26713 -9.13608
RightLeg  29.7707 5.97697 3.44857
RightFoot  6.68671 -2.13216 13.668
RightToes  -2.08645e-008 3.77894e-005 6.81332e-007
Spine  2.16928 -3.63758 -4.04834
Spine1  3.04354 -4.06636 2.56968
HEad  -28.1278 -22.4001 3.78102
LeftShoulder1  6.25626 -12.2888 -33.6142
LeftArm  2.81114 31.9703 -23.0681
LeftForeArm  171.936 -61.0029 -162.322
LeftHand  -0.298128 -0.960939 5.57449
RightShoulder  3.75605 6.35816 32.2016
RightArm  16.3287 -27.2275 31.7015
RightForeArm  153.626 73.2819 145.384
RightHand  0.265343 9.2969 1.69416
LeftUpLeg  -3.31622 0.269698 12.3535
LeftLeg  19.4309 8.29991 3.59999
LeftFoot  5.36791 1.9879 -13.6378
LeftToes  1.24767e-006 1.47042e-008 1.32732e-009
370
root  -0.884249 40.0556 19.9092 7.422 60.9448 0.771484
RightUpLeg  -22.867 -1.73362 -7.81195
RightLeg  31.1771 2.68204 1.5145
RightFoot  -1.59346 -0.68072 7.63575
RightToes  -2.08645e-008 3.77894e-005 6.81332e-007
Spine  1.81904 -4.10979 -5.48518
Spine1  3.42779 -5.01375 4.94147
HEad  -27.946 -23.4972 3.24235
LeftShoulder1  6.42386 -12.4097 -34.361
LeftArm  0.169768 29.6536 -23.6016
LeftForeArm  170.871 -60.2599 -162.729
LeftHand  -0.324222 -1.21075 5.84649
RightShoulder  3.72105 6.30588 32.0474
RightArm  15.0383 -25.2085 30.9298
RightForeArm  152.743 74.0468 143.549
RightHand  0.249881 9.5879 1.52263
LeftUpLeg  -4.72757 -2.5745 13.876
LeftLeg  23.9926 8.62315 4.49095
LeftFoot  2.87514 1.80917 -14.4701
LeftToes  1.24767e-006 1.47042e-008 1.32732e-009
371
root  -0.812118 38.8736 20.0252 5.78967 62.7554 -0.528564
RightUpLeg  -21.9413 -2.72647 -6.48132
RightLeg  33.3408 0.309243 -0.0300625
RightFoot  -10.2528 -0.0989398 3.09138
RightToes  -2.08645e-008 3.77894e-005 6.81332e-007
Spine  1.09038 -4.09455 -3.62746
Spine1  4.91461 -4.89168 4.17871
HEad  -29.416 -25.2206 3.26692
LeftShoulder1  7.09786 -12.9784 -36.9936
LeftArm  -2.62137 23.9713 -22.5798
LeftForeArm  170.145 -60.6559 -162.395
LeftHand  -0.381788 -1.02723 7.04433
RightShoulder  3.75937 6.31159 32.4175
RightArm  12.3064 -22.7641 30.6489
RightForeArm  149.735 75.1519 140.213
RightHand  -0.0288285 9.70519 -0.625564
LeftUpLeg  -4.65491 -5.10862 15.3704
LeftLeg  26.9472 6.43283 3.88042
LeftFoot  -4.46702 1.3373 -21.5953
LeftToes  1.24767e-006 1.47042e-008 1.32732e-009
372
root  -0.701651 38.04 19.9728 3.26404 61.5528 -2.91797
RightUpLeg  -22.695 -0.586315 -5.26964
RightLeg  36.1302 -1.23575 -1.2294
RightFoot  -14.5041 -0.0260353 2.53262
RightToes  -2.08645e-008 3.77894e-005 6.81332e-007
Spine  -0.508177 -3.11115 0.0354407
Spine1  7.20937 -3.35885 1.11084
HEad  -31.5344 -26.3722 4.11905
LeftShoulder1  7.93317 -13.6555 -40.0308
LeftArm  -6.26625 19.0702 -23.4448
LeftForeArm  175.042 -62.3781 -161.627
LeftHand  -0.438544 -0.917922 8.20614
RightShoulder  3.88481 6.41393 33.2863
RightArm  9.17925 -19.9109 30.9203
RightForeArm  145.92 76.5461 135.149
RightHand  -0.278792 9.38775 -2.58193
LeftUpLeg  -2.27532 -4.36519 16.4704
LeftLeg  26.5956 7.14389 4.20945
LeftFoot  -12.5159 -0.174897 -25.5961
LeftToes  1.24767e-006 1.47042e-008 1.32732e-009
373
root  -0.595431 38.175 19.9138 3.50903 60.5807 -2.5307
RightUpLeg  -22.4428 2.27014 -5.63845
RightLeg  35.5081 -2.88382 -2.43213
RightFoot  -13.5628 -0.0240431 3.28657
RightToes  -2.08645e-008 3.77894e-005 6.81332e-007
Spine  -1.96184 -2.87689 -1.038
Spine1  8.52725 -3.25675 1.40469
HEad  -31.7005 -25.8665 4.43889
LeftShoulder1  8.32068 -13.9677 -41.3418
LeftArm  -9.45879 20.1946 -27.9038
LeftForeArm  178.85 -63.7833 -160.917
LeftHand  -0.434866 -1.29058 7.70911
RightShoulder  4.01774 6.54346 34.1011
RightArm  7.0338 -18.7264 32.6892
RightForeArm  143.682 77.6816 130.294
RightHand  -0.240219 9.46362 -2.27061
LeftUpLeg  -1.07994 -2.22092 16.2459
LeftLeg  25.1728 7.13071 3.98207
LeftFoot  -12.6977 -0.217502 -25.3291
LeftToes  1.24767e-006 1.47042e-008 1.32732e-009
374
root  -0.486435 39.3326 19.6393 5.67896 62.6179 -0.516235
RightUpLeg  -19.6485 0.513665 -7.2923
RightLeg  29.0767 -2.46096 -1.69427
RightFoot  -7.46757 -0.182762 4.42565
RightToes  -2.08645e-008 3.77894e-005 6.81332e-007
Spine  -2.61151 -4.20997 -3.775
Spine1  8.18782 -5.00899 3.71123
HEad  -29.625 -25.1636 3.43415
LeftShoulder1  8.18175 -13.8593 -40.8659
LeftArm  -8.64549 24.5806 -32.1775
LeftForeArm  174.183 -64.7654 -159.61
LeftHand  -0.394556 -1.12827 7.16857
RightShoulder  3.99284 6.50572 34.0032
RightArm  6.68358 -20.8958 35.673
RightForeArm  144.159 77.7858 129.982
RightHand  -0.0292452 9.51231 -0.625588
LeftUpLeg  -3.31964 -1.15091 15.1328
LeftLeg  24.195 5.03505 2.80715
LeftFoot  -2.08632 1.85461 -22.6015
LeftToes  1.24767e-006 1.47042e-008 1.32732e-009
375
root  -0.305917 40.7427 19.0863 7.24634 63.6576 0.118835
RightUpLeg  -17.1768 -3.66286 -8.85723
RightLeg  20.6775 2.28355 0.739029
RightFoot  2.53849 -1.12697 9.38195
RightToes  -2.08645e-008 3.77894e-005 6.81332e-007
Spine  -3.80001 -4.74187 -2.36432
Spine1  7.41416 -5.23175 2.57377
HEad  -26.9242 -25.4843 2.04793
LeftShoulder1  8.00805 -13.7562 -40.1828
LeftArm  -3.50768 27.8192 -32.5406
LeftForeArm  168.834 -65.5988 -158.277
LeftHand  -0.40057 -1.70508 6.73101
RightShoulder  3.93254 6.4463 33.6381
RightArm  7.89008 -24.7535 36.6413
RightForeArm  146.968 76.5699 135.308
RightHand  -0.145246 8.99463 -1.56193
LeftUpLeg  -5.26079 1.35529 13.9924
LeftLeg  21.2089 4.70407 2.34153
LeftFoot  8.26579 3.09839 -18.0958
LeftToes  1.24767e-006 1.47042e-008 1.32732e-009
376
root  -0.118762 41.7054 18.5506 8.2688 60.9872 0.340515
RightUpLeg  -16.754 -4.21772 -10.1911
RightLeg  15.0413 5.16954 1.03676
RightFoot  10.0519 -2.64065 14.4137
RightToes  -2.08645e-008 3.77894e-005 6.81332e-007
Spine  -5.39284 -3.63127 -0.630615
Spine1  7.02335 -3.57972 -0.0115844
HEad  -24.8577 -25.3836 1.15187
LeftShoulder1  7.9339 -13.7629 -39.7588
LeftArm  1.85645 29.9793 -30.5027
LeftForeArm  169.563 -65.062 -158.853
LeftHand  -0.315526 -2.42934 4.88743
RightShoulder  4.01472 6.59221 33.8788
RightArm  10.6828 -27.0335 34.0512
RightForeArm  150.66 74.5357 142.001
RightHand  -0.0452314 9.02968 -0.757426
LeftUpLeg  -4.03108 6.05845 12.7239
LeftLeg  15.8428 5.53253 2.12675
LeftFoot  8.97415 2.70853 -15.339
LeftToes  1.24767e-006 1.47042e-008 1.32732e-009
377
root  -0.0304025 42.0208 18.0398 8.8053 57.9167 1.00342
RightUpLeg  -17.3867 0.908281 -12.1281
RightLeg  14.791 0.549822 -0.727908
RightFoot  10.6155 -1.97414 10.4527
RightToes  -2.08645e-008 3.77894e-005 6.81332e-007
Spine  -5.70613 -2.9754 -1.50911
Spine1  6.83114 -2.88627 0.179202
HEad  -24.1074 -23.7267 0.872874
LeftShoulder1  7.6904 -13.615 -38.7809
LeftArm  5.57585 31.8605 -28.5123
LeftForeArm  171.441 -63.2515 -160.595
LeftHand  -0.24671 -2.53064 3.82917
RightShoulder  4.01078 6.65472 33.5961
RightArm  13.8544 -26.01 31.6955
RightForeArm  152.838 73.468 144.867
RightHand  0.00402476 9.05012 -0.362759
LeftUpLeg  -2.24857 7.44017 11.3721
LeftLeg  12.2578 5.0296 1.51034
LeftFoot  6.64842 2.577 -16.4477
LeftToes  1.24767e-006 1.47042e-008 1.32732e-009
378
root  -0.0475045 41.6885 17.3744 8.12402 56.647 0.822876
RightUpLeg  -18.8922 6.8153 -14.174
RightLeg  19.7674 -5.19852 -2.3951
RightFoot  8.71114 -0.361786 2.33705
RightToes  -2.08645e-008 3.77894e-005 6.81332e-007
Spine  -4.41753 -3.34976 -1.3828
Spine1  6.10478 -3.33755 0.477218
HEad  -24.3288 -21.7934 1.1383
LeftShoulder1  7.20267 -13.2365 -36.9524
LeftArm  8.45546 32.3157 -26.9106
LeftForeArm  171.525 -61.5547 -161.894
LeftHand  -0.252854 -2.4961 3.93374
RightShoulder  3.81656 6.48102 32.3367
RightArm  15.3721 -23.6157 32.1031
RightForeArm  152.825 73.8536 143.998
RightHand  0.0819706 9.21093 0.252404
LeftUpLeg  -2.53659 4.54343 10.0479
LeftLeg  14.1662 2.95168 1.27815
LeftFoot  5.92101 2.71078 -17.9745
LeftToes  1.24767e-006 1.47042e-008 1.32732e-009
379
root  -0.132099 40.6511 16.6468 6.57227 55.2568 0.20874
RightUpLeg  -20.6184 8.868 -15.3509
RightLeg  26.2413 -5.29819 -3.05946
RightFoot  6.08636 -0.465805 3.31016
RightToes  -2.08645e-008 3.77894e-005 6.81332e-007
Spine  -1.78101 -3.46444 -0.164972
Spine1  4.78412 -3.32323 -0.724042
HEad  -25.5513 -20.5291 1.62188
LeftShoulder1  6.84125 -12.9561 -35.5301
LeftArm  9.40432 30.3356 -25.662
LeftForeArm  170.975 -60.9948 -162.239
LeftHand  -0.270428 -2.54565 4.17035
RightShoulder  3.71662 6.40674 31.6124
RightArm  15.2843 -21.3528 32.3617
RightForeArm  151.509 74.1087 143.181
RightHand  0.102602 9.42746 0.400484
LeftUpLeg  -3.3177 1.96599 9.08856
LeftLeg  20.2424 1.71816 1.03391
LeftFoot  -0.11718 1.78568 -18.039
LeftToes  1.24767e-006 1.47042e-008 1.32732e-009
